<?xml version="1.0" standalone="no"?><!-- Generator: Adobe Fireworks CS6, Export SVG Extension by Aaron Beall (http://fireworks.abeall.com) . Version: 0.6.1  --><!DOCTYPE svg PUBLIC "-//W3C//DTD SVG 1.1//EN" "http://www.w3.org/Graphics/SVG/1.1/DTD/svg11.dtd"><svg id="DeviceIcons-Page%201" viewBox="0 0 22 213" style="background-color:#ffffff00" version="1.1"	xmlns="http://www.w3.org/2000/svg" xmlns:xlink="http://www.w3.org/1999/xlink" xml:space="preserve"	x="0px" y="0px" width="22px" height="213px">	<g id="Layer%201">		<path id="iPhone%204" d="M 4 61 L 18.061 61 C 19.1656 61 20 61.6187 20 62.7232 L 20 91 C 20 92.1046 19.1656 93 18.061 93 L 4 93 C 2.8954 93 2 92.1046 2 91 L 2 62.75 C 2 61.6454 2.8954 61 4 61 ZM 3 64 L 19 64 L 19 88 L 3 88 L 3 64 ZM 10 62 L 13 62 L 13 63 L 10 63 L 10 62 ZM 8 62 L 9 62 L 9 63 L 8 63 L 8 62 ZM 10 90 L 10 92 L 12 92 L 12 90 L 10 90 Z" fill="#bbbbbb"/>		<path id="iPhone%2042" d="M 4 0 L 18.061 0 C 19.1656 0 20 0.6187 20 1.7232 L 20 32 C 20 33.1046 19.1656 34 18.061 34 L 4 34 C 2.8954 34 2 33.1046 2 32 L 2 1.75 C 2 0.6454 2.8954 0 4 0 ZM 3 3 L 19 3 L 19 29 L 3 29 L 3 3 ZM 10 1 L 13 1 L 13 2 L 10 2 L 10 1 ZM 8 1 L 9 1 L 9 2 L 8 2 L 8 1 ZM 10 31 L 10 33 L 12 33 L 12 31 L 10 31 Z" fill="#bbbbbb"/>		<path id="iPod%20Touch" d="M 4.4076 121 L 17.5924 121 C 18.3909 121 20 122.8954 20 124 L 20 150.3959 C 20 151.5004 18.1499 153 17.3515 153 L 4.7087 153 C 3.9103 153 2 151.5004 2 150.3959 L 2 123.8334 C 2 122.7288 3.6091 121 4.4076 121 ZM 3 125 L 19 125 L 19 148 L 3 148 L 3 125 ZM 10 150 L 10 152 L 12 152 L 12 150 L 10 150 ZM 10 123 L 10 124 L 12 124 L 12 123 L 10 123 Z" fill="#bbbbbb"/>		<path id="iPad%202" d="M 2.9167 181 L 19.0833 181 C 20.1879 181 22 182.8954 22 184 L 22 210.3959 C 22 211.5004 19.8546 213 18.75 213 L 3.3333 213 C 2.2288 213 0 211.5004 0 210.3959 L 0 183.8334 C 0 182.7288 1.8121 181 2.9167 181 ZM 1 185 L 21 185 L 21 208 L 1 208 L 1 185 ZM 10 210 L 10 212 L 12 212 L 12 210 L 10 210 ZM 10 182 L 10 183 L 12 183 L 12 182 L 10 182 Z" fill="#bbbbbb"/>		<rect x="3" y="64" width="16" height="24" fill="#f7f7f7"/>		<rect x="3" y="125" width="16" height="23" fill="#f7f7f7"/>		<rect x="1" y="185" width="20" height="23" fill="#f7f7f7"/>		<rect x="3" y="3" width="16" height="26" fill="#f7f7f7"/>	</g></svg>